<svg width="2876" height="2876" viewBox="0 0 2876 2876" fill="none" xmlns="http://www.w3.org/2000/svg">
<g clip-path="url(#clip0_847_2288)">
<circle cx="1437.5" cy="1437.5" r="1437.5" fill="#1592A8"/>
<path d="M1437.4 719V1437L1945.4 929.267L2453.4 421.667L2448.07 415.933C2441.27 408.6 2400.47 370.467 2382.07 354.333C2192.07 187.933 1951.93 71.1333 1706.73 25.7999C1696.47 23.9332 1685.13 21.7999 1681.4 20.9999C1652.47 15.5332 1603 9.3999 1545.4 4.33325C1526.87 2.73328 1485 0.999878 1462.07 0.999878H1437.4V719Z" fill="#FA9158"/>
<path d="M394.467 448.066C345.8 499.666 305.933 547.8 267.533 601.4C99.1333 837.133 7.13333 1112.33 -0.0666666 1401.8L-1 1437.67H717.133H1435.4L927.8 929.933C648.467 650.733 419.8 422.333 419.4 422.333C419 422.333 407.8 433.933 394.467 448.066Z" fill="#FA9158"/>
<path d="M1945.8 1946.6L2454.2 2455L2469.67 2439C2621.13 2281.67 2732.87 2097.93 2800.87 1894.33C2846.07 1759 2871.13 1616.33 2873.67 1479.93L2874.47 1438.33H2155.93H1437.4L1945.8 1946.6Z" fill="#FA9158"/>
<path d="M928.333 1947.4L420.6 2455.13L440.333 2474.47C498.6 2531.27 567.8 2587.13 640.067 2635.27C865.8 2785.67 1129.67 2869.13 1398.47 2875.27L1436.73 2876.07V2157.93C1436.73 1762.87 1436.6 1439.67 1436.33 1439.67C1436.2 1439.67 1207.53 1668.2 928.333 1947.4Z" fill="#FA9158"/>
</g>
<defs>
<clipPath id="clip0_847_2288">
<rect width="2876" height="2876" fill="white"/>
</clipPath>
</defs>
</svg>
